# xmcd
#
# Track frame offsets:
#	150
#	20007
#	37928
#	56908
#	75181
#	97184
#	116501
#	129967
#	147529
#	162844
#	178476
#	198542
#	218103
#	236706
#	257051
#	273084
#
# Disc length: 3875 seconds
#
# Revision: 0
# Processed by: cddbd v1.5.1PL2 Copyright (c) Steve Scherf et al.
# Submitted via: audiograbber 1.83.01
#
DISCID=e70f2110
DTITLE=мотгс  вяистодоукоу - жаматийа
DYEAR=2003
DGENRE=екк поп
TTITLE0=еяытас еимаи
TTITLE1=TABOO
TTITLE2=лауяо апоье то жеццаяи лоу
TTITLE3=жаматийа ха с' ацапы
TTITLE4=апокоцоулаи
TTITLE5=омеияа йамы
TTITLE6=йыдийос
TTITLE7=йаи око вакаце т' алани
TTITLE8=лиа еувг циа сема йамы
TTITLE9=фы ема омеияо тяеко
TTITLE10=асто ма сулбеи
TTITLE11=цимолаи
TTITLE12=йоллати ха цимы тгс фыгс соу
TTITLE13=аивлакытос
TTITLE14=се пеяилемы
TTITLE15=пале лайяиа
EXTD=
EXTT0=
EXTT1=
EXTT2=
EXTT3=
EXTT4=
EXTT5=
EXTT6=
EXTT7=
EXTT8=
EXTT9=
EXTT10=
EXTT11=
EXTT12=
EXTT13=
EXTT14=
EXTT15=
PLAYORDER=
